<svg id="computer" xmlns="http://www.w3.org/2000/svg" width="85.556" height="85.556" viewBox="0 0 85.556 85.556">
  <path id="Trazado_10514" data-name="Trazado 10514" d="M80.209,64.6H5.347A5.354,5.354,0,0,1,0,59.255V9.347A5.354,5.354,0,0,1,5.347,4h7.13a1.782,1.782,0,0,1,0,3.565H5.347A1.783,1.783,0,0,0,3.565,9.347V59.255a1.783,1.783,0,0,0,1.782,1.782H80.209a1.783,1.783,0,0,0,1.782-1.782V9.347a1.783,1.783,0,0,0-1.782-1.782H74.861a1.782,1.782,0,0,1,0-3.565h5.347a5.354,5.354,0,0,1,5.347,5.347V59.255A5.354,5.354,0,0,1,80.209,64.6Z" transform="translate(0 10.259)" fill="#748693"/>
  <path id="Trazado_10515" data-name="Trazado 10515" d="M34.737,34.262H9.784a1.784,1.784,0,0,1-1.262-3.044c4.691-4.691,4.752-9.233,4.752-9.425a1.788,1.788,0,0,1,1.772-1.786h.011a1.779,1.779,0,0,1,1.782,1.75,16.6,16.6,0,0,1-3.24,8.937H30.912A16.875,16.875,0,0,1,27.6,21.781a1.782,1.782,0,0,1,3.565-.011c0,.225.143,4.763,4.827,9.443a1.787,1.787,0,0,1-1.258,3.048ZM31.173,21.785h.036Z" transform="translate(20.517 51.294)" fill="#748693"/>
  <path id="Trazado_10516" data-name="Trazado 10516" d="M83.773,20.565H1.782a1.782,1.782,0,1,1,0-3.565H83.773a1.782,1.782,0,0,1,0,3.565Z" transform="translate(0 43.602)" fill="#748693"/>
  <path id="Trazado_10517" data-name="Trazado 10517" d="M27.389,17.824a1.785,1.785,0,0,1-.61-.107L7.173,10.588a1.783,1.783,0,0,1,0-3.351L26.779.107A1.791,1.791,0,0,1,28,.107l19.607,7.13a1.783,1.783,0,0,1,0,3.351L28,17.717a1.785,1.785,0,0,1-.61.107ZM13,8.912l14.391,5.233L41.78,8.912,27.389,3.679Z" transform="translate(15.389 0)" fill="#748693"/>
  <path id="Trazado_10518" data-name="Trazado 10518" d="M27.389,37.648a1.785,1.785,0,0,1-.61-.107L7.173,30.412A1.782,1.782,0,0,1,6,28.736V3.782a1.782,1.782,0,0,1,3.565,0V27.489l17.824,6.481,17.824-6.481V3.782a1.782,1.782,0,1,1,3.565,0V28.736a1.782,1.782,0,0,1-1.173,1.675L28,37.541A1.785,1.785,0,0,1,27.389,37.648Z" transform="translate(15.389 5.13)" fill="#748693"/>
  <path id="Trazado_10519" data-name="Trazado 10519" d="M13.282,32.519A1.783,1.783,0,0,1,11.5,30.736V5.782a1.782,1.782,0,0,1,3.565,0V30.736A1.783,1.783,0,0,1,13.282,32.519Z" transform="translate(29.496 10.259)" fill="#748693"/>
</svg>
