<svg xmlns="http://www.w3.org/2000/svg" width="475.884" height="389.621" viewBox="0 0 475.884 389.621">
  <g id="Grupo_13577" data-name="Grupo 13577" transform="translate(-733.217 -125.804)">
    <path id="Trazado_9922" data-name="Trazado 9922" d="M758.084,195.1C737.3,130.28,662.84,110.2,604.928,140.247q-5.3,2.061-10.312,4.565c-13.394,6.662-25.478,15.586-37.191,25.626-24.262,20.916-46.851,42.668-74.234,56.774-3.214,1.793-9.456,5.284-16.65,9.371-14.39,8.174-32.561,18.8-38.16,22.55q-2.167,1.453-4.422,2.766c-29.177,16.9-52.606,43.891-64.277,74.639l-.059.153a75.829,75.829,0,0,0-4.79,30.063c1.894,43.932,21.915,91.556,59.47,114.523a151.627,151.627,0,0,0,15.534,7.37,189.011,189.011,0,0,0,50.193,12.435,224.054,224.054,0,0,0,32.879,1.572,210.9,210.9,0,0,0,31.886-3.22c8.993-1.137,17.893-2.676,26.616-4.558,3.71-.616,7.367-1.221,10.91-1.815,28.647-7.212,55.419,5.338,82.191,15.377,29.282,11.713,63.584,9.2,93.554-.943a86.343,86.343,0,0,0,14.7-7.978q.863-.583,1.712-1.186c29.733-21.144,41.278-59.8,29.109-94.2-9.605-27.148-24.412-62.923-27.547-80.237C772.164,302.485,776.291,245.244,758.084,195.1Z" transform="translate(400.733 -0.787)" fill="#c2c7cb" opacity="0.3"/>
    <g id="Grupo_10652" data-name="Grupo 10652" transform="translate(733.217 205.284)">
      <g id="Grupo_10615" data-name="Grupo 10615" transform="translate(0 87.448)">
        <g id="Grupo_10602" data-name="Grupo 10602" transform="translate(24.838 124.234)">
          <g id="Grupo_10601" data-name="Grupo 10601">
            <path id="Trazado_10469" data-name="Trazado 10469" d="M32.41,257.75a5.37,5.37,0,0,0-5.369,5.357V287.75a5.366,5.366,0,0,0,5.369,5.357H72.689V257.75Z" transform="translate(-27.041 -257.75)" fill="#1a222b"/>
            <path id="Trazado_10470" data-name="Trazado 10470" d="M75.289,257.75H35v35.357H75.289a5.37,5.37,0,0,0,5.369-5.357V263.107A5.373,5.373,0,0,0,75.289,257.75Z" transform="translate(10.649 -257.75)" fill="#1a222b"/>
          </g>
          <path id="Trazado_10471" data-name="Trazado 10471" d="M111.559,258.048H30.989a3.643,3.643,0,0,0-3.648,3.648v24.643a3.646,3.646,0,0,0,3.648,3.648h80.57a3.65,3.65,0,0,0,3.648-3.648V261.7A3.646,3.646,0,0,0,111.559,258.048Z" transform="translate(-25.62 -256.339)" fill="#2c3540"/>
          <path id="Rectángulo_2710" data-name="Rectángulo 2710" d="M.071,0H6.41a.07.07,0,0,1,.07.07V6.415a.071.071,0,0,1-.071.071H.071A.071.071,0,0,1,0,6.415V.071A.071.071,0,0,1,.071,0Z" transform="translate(5.367 4.974)" fill="#f5f5f5"/>
          <path id="Rectángulo_2711" data-name="Rectángulo 2711" d="M.069,0H6.41a.07.07,0,0,1,.07.07V6.406a.069.069,0,0,1-.069.069H.071A.071.071,0,0,1,0,6.4V.069A.069.069,0,0,1,.069,0Z" transform="translate(5.367 14.441)" fill="#f5f5f5"/>
          <path id="Rectángulo_2712" data-name="Rectángulo 2712" d="M.071,0H6.41a.07.07,0,0,1,.07.07V6.417a.07.07,0,0,1-.07.07H.071A.071.071,0,0,1,0,6.416V.071A.071.071,0,0,1,.071,0Z" transform="translate(5.367 23.897)" fill="#f5f5f5"/>
          <path id="Rectángulo_2713" data-name="Rectángulo 2713" d="M.07,0H6.41a.071.071,0,0,1,.071.071V6.415a.071.071,0,0,1-.071.071H.07A.07.07,0,0,1,0,6.416V.07A.07.07,0,0,1,.07,0Z" transform="translate(14.721 4.974)" fill="#f5f5f5"/>
          <path id="Rectángulo_2714" data-name="Rectángulo 2714" d="M.069,0H6.411a.07.07,0,0,1,.07.07V6.406a.069.069,0,0,1-.069.069H.07A.07.07,0,0,1,0,6.405V.069A.069.069,0,0,1,.069,0Z" transform="translate(14.721 14.441)" fill="#f5f5f5"/>
          <path id="Rectángulo_2715" data-name="Rectángulo 2715" d="M.071,0H6.412a.069.069,0,0,1,.069.069V6.415a.071.071,0,0,1-.071.071H.071A.071.071,0,0,1,0,6.415V.071A.071.071,0,0,1,.071,0Z" transform="translate(23.863 4.974)" fill="#f5f5f5"/>
          <path id="Rectángulo_2716" data-name="Rectángulo 2716" d="M.069,0H6.412a.069.069,0,0,1,.069.069V6.406a.069.069,0,0,1-.069.069H.071A.071.071,0,0,1,0,6.4V.069A.069.069,0,0,1,.069,0Z" transform="translate(23.863 14.441)" fill="#f5f5f5"/>
          <path id="Rectángulo_2717" data-name="Rectángulo 2717" d="M.071,0H6.417a.07.07,0,0,1,.07.07V6.415a.071.071,0,0,1-.071.071H.071A.071.071,0,0,1,0,6.415V.071A.071.071,0,0,1,.071,0Z" transform="translate(33.218 4.974)" fill="#f5f5f5"/>
          <path id="Rectángulo_2718" data-name="Rectángulo 2718" d="M.069,0H6.417a.07.07,0,0,1,.07.07V6.406a.069.069,0,0,1-.069.069H.071A.071.071,0,0,1,0,6.4V.069A.069.069,0,0,1,.069,0Z" transform="translate(33.218 14.441)" fill="#f5f5f5"/>
          <path id="Rectángulo_2719" data-name="Rectángulo 2719" d="M.071,0H6.415a.072.072,0,0,1,.072.072V6.415a.071.071,0,0,1-.071.071H.07A.07.07,0,0,1,0,6.416V.071A.071.071,0,0,1,.071,0Z" transform="translate(42.349 4.974)" fill="#f5f5f5"/>
          <path id="Rectángulo_2720" data-name="Rectángulo 2720" d="M.071,0h6.35a.071.071,0,0,1,.071.071V6.415a.071.071,0,0,1-.071.071H.072A.072.072,0,0,1,0,6.414V.071A.071.071,0,0,1,.071,0Z" transform="translate(51.709 4.974)" fill="#f5f5f5"/>
          <path id="Rectángulo_2721" data-name="Rectángulo 2721" d="M.069,0H6.415a.072.072,0,0,1,.072.072V6.406a.069.069,0,0,1-.069.069H.07A.07.07,0,0,1,0,6.405V.069A.069.069,0,0,1,.069,0Z" transform="translate(42.349 14.441)" fill="#f5f5f5"/>
          <path id="Trazado_10472" data-name="Trazado 10472" d="M63.318,261.916h-33.3a.4.4,0,0,0-.407.4V268a.4.4,0,0,0,.407.407h33.3a.4.4,0,0,0,.407-.407v-5.679A.4.4,0,0,0,63.318,261.916Z" transform="translate(-14.888 -238.019)" fill="#f5f5f5"/>
          <path id="Trazado_10473" data-name="Trazado 10473" d="M51.467,258.617H45.794a.4.4,0,0,0-.4.413v9.057h-8.96a.4.4,0,0,0-.4.4v5.679a.406.406,0,0,0,.4.4H51.467a.409.409,0,0,0,.413-.4V259.03A.408.408,0,0,0,51.467,258.617Z" transform="translate(15.565 -253.644)" fill="#f5f5f5"/>
          <path id="Rectángulo_2722" data-name="Rectángulo 2722" d="M.071,0h6.35a.071.071,0,0,1,.071.071V6.417a.07.07,0,0,1-.07.07H.072A.072.072,0,0,1,0,6.415V.071A.071.071,0,0,1,.071,0Z" transform="translate(51.709 23.897)" fill="#f5f5f5"/>
          <path id="Rectángulo_2723" data-name="Rectángulo 2723" d="M.071,0h6.34a.07.07,0,0,1,.07.07V6.417a.07.07,0,0,1-.07.07H.071A.071.071,0,0,1,0,6.416V.071A.071.071,0,0,1,.071,0Z" transform="translate(60.963 23.897)" fill="#f5f5f5"/>
          <path id="Rectángulo_2724" data-name="Rectángulo 2724" d="M.069,0H6.417a.07.07,0,0,1,.07.07V6.406a.069.069,0,0,1-.069.069H.069A.069.069,0,0,1,0,6.406V.069A.069.069,0,0,1,.069,0Z" transform="translate(70.094 14.441)" fill="#f5f5f5"/>
          <path id="Rectángulo_2725" data-name="Rectángulo 2725" d="M.069,0H6.416a.071.071,0,0,1,.071.071V6.406a.069.069,0,0,1-.069.069H.07A.07.07,0,0,1,0,6.405V.069A.069.069,0,0,1,.069,0Z" transform="translate(79.449 14.441)" fill="#f5f5f5"/>
          <path id="Rectángulo_2726" data-name="Rectángulo 2726" d="M.071,0H6.417a.07.07,0,0,1,.07.07V6.415a.071.071,0,0,1-.071.071H.07A.07.07,0,0,1,0,6.416V.071A.071.071,0,0,1,.071,0Z" transform="translate(70.094 4.974)" fill="#f5f5f5"/>
          <path id="Rectángulo_2727" data-name="Rectángulo 2727" d="M.071,0H6.416a.071.071,0,0,1,.071.071V6.415a.071.071,0,0,1-.071.071H.07A.07.07,0,0,1,0,6.416V.071A.071.071,0,0,1,.071,0Z" transform="translate(79.449 4.974)" fill="#f5f5f5"/>
          <path id="Rectángulo_2728" data-name="Rectángulo 2728" d="M.071,0H6.417a.07.07,0,0,1,.07.07V6.417a.07.07,0,0,1-.07.07H.07A.07.07,0,0,1,0,6.417V.071A.071.071,0,0,1,.071,0Z" transform="translate(70.094 23.897)" fill="#f5f5f5"/>
          <path id="Rectángulo_2729" data-name="Rectángulo 2729" d="M.071,0H6.416a.071.071,0,0,1,.071.071V6.417a.07.07,0,0,1-.07.07H.07A.07.07,0,0,1,0,6.417V.071A.071.071,0,0,1,.071,0Z" transform="translate(79.449 23.897)" fill="#f5f5f5"/>
        </g>
        <g id="Grupo_10605" data-name="Grupo 10605" transform="translate(120.975 127.699)">
          <path id="Trazado_10474" data-name="Trazado 10474" d="M67.491,258.354H49.864a6.06,6.06,0,0,0-6.063,6.057v17.616a6.066,6.066,0,0,0,6.063,6.069H67.491a6.061,6.061,0,0,0,6.057-6.069V264.411A6.055,6.055,0,0,0,67.491,258.354Z" transform="translate(-43.801 -258.354)" fill="#1a222b"/>
          <path id="Trazado_10475" data-name="Trazado 10475" d="M65.816,258.559H49.588a5.569,5.569,0,0,0-5.581,5.581v16.227a5.577,5.577,0,0,0,5.581,5.581H65.816a5.589,5.589,0,0,0,5.587-5.581V264.14A5.582,5.582,0,0,0,65.816,258.559Z" transform="translate(-42.825 -257.383)" fill="#2c3540"/>
          <g id="Grupo_10604" data-name="Grupo 10604" transform="translate(8.099 4.772)">
            <g id="Grupo_10603" data-name="Grupo 10603" transform="translate(0.001)">
              <path id="Trazado_10476" data-name="Trazado 10476" d="M51.993,259.186h-.855a5.932,5.932,0,0,0-5.925,5.937v2.048h6.78Z" transform="translate(-45.213 -259.186)" fill="#e0e0e0"/>
              <path id="Trazado_10477" data-name="Trazado 10477" d="M45.213,260.578v6.275a5.929,5.929,0,0,0,5.925,5.925h.855v-12.2Z" transform="translate(-45.213 -252.593)" fill="#e0e0e0"/>
              <path id="Trazado_10478" data-name="Trazado 10478" d="M46.395,260.578v12.2h.843a5.925,5.925,0,0,0,5.925-5.925v-6.275Z" transform="translate(-39.615 -252.593)" fill="#f5f5f5"/>
            </g>
            <rect id="Rectángulo_2730" data-name="Rectángulo 2730" width="13.55" height="1.137" transform="translate(0 7.683)" fill="#e0e0e0"/>
            <path id="Trazado_10479" data-name="Trazado 10479" d="M52.836,259.186h-1.7a5.932,5.932,0,0,0-5.925,5.937v2.048H58.762v-2.048A5.928,5.928,0,0,0,52.836,259.186Z" transform="translate(-45.212 -259.186)" fill="#f5f5f5"/>
          </g>
        </g>
        <g id="Grupo_10614" data-name="Grupo 10614">
          <g id="Grupo_10613" data-name="Grupo 10613">
            <g id="Grupo_10612" data-name="Grupo 10612">
              <path id="Trazado_10480" data-name="Trazado 10480" d="M66.945,256H32.489V262.7H101.4V256Z" transform="translate(23.601 -141.786)" fill="#1a222b"/>
              <path id="Trazado_10481" data-name="Trazado 10481" d="M52.792,247.977H34.475v46.04H71.115v-46.04Z" transform="translate(33.003 -179.8)" fill="#0a0c0d"/>
              <path id="Trazado_10482" data-name="Trazado 10482" d="M62.929,256H28.468V262.7H97.379V256Z" transform="translate(4.554 -141.786)" fill="#2c3540"/>
              <path id="Trazado_10483" data-name="Trazado 10483" d="M50.119,247.977H31.807v46.04h36.63v-46.04Z" transform="translate(20.367 -179.8)" fill="#1a222b"/>
              <rect id="Rectángulo_2731" data-name="Rectángulo 2731" width="36.63" height="32.608" transform="translate(52.174 68.178)" fill="#2c3540" opacity="0.5" style="mix-blend-mode: multiply;isolation: isolate"/>
              <g id="Grupo_10611" data-name="Grupo 10611">
                <g id="Grupo_10606" data-name="Grupo 10606" transform="translate(5.955)">
                  <path id="Rectángulo_2732" data-name="Rectángulo 2732" d="M.551,0h139.87a.551.551,0,0,1,.551.551V92.663a.549.549,0,0,1-.549.549H.55a.55.55,0,0,1-.55-.55V.551A.551.551,0,0,1,.551,0Z" fill="#1a222b"/>
                </g>
                <g id="Grupo_10607" data-name="Grupo 10607">
                  <path id="Rectángulo_2733" data-name="Rectángulo 2733" d="M.551,0H140.427a.551.551,0,0,1,.551.551V92.66a.552.552,0,0,1-.552.552H.55a.55.55,0,0,1-.55-.55V.551A.551.551,0,0,1,.551,0Z" fill="#2c3540"/>
                </g>
                <g id="Grupo_10608" data-name="Grupo 10608" transform="translate(5.12 4.829)">
                  <rect id="Rectángulo_2734" data-name="Rectángulo 2734" width="130.738" height="83.555" rx="0.545" fill="#fafbfd"/>
                </g>
                <rect id="Rectángulo_2735" data-name="Rectángulo 2735" width="39.1" height="76.132" transform="translate(7.938 9.131)" fill="#bcc9d6"/>
                <g id="Grupo_10609" data-name="Grupo 10609" transform="translate(11.405 13.366)">
                  <rect id="Rectángulo_2736" data-name="Rectángulo 2736" width="32.17" height="5.977" transform="translate(0 31.521)" fill="#2c3540"/>
                  <rect id="Rectángulo_2737" data-name="Rectángulo 2737" width="32.17" height="5.966" transform="translate(0 42.035)" fill="#2c3540"/>
                  <rect id="Rectángulo_2738" data-name="Rectángulo 2738" width="32.17" height="5.971" transform="translate(0 52.543)" fill="#2c3540"/>
                  <rect id="Rectángulo_2739" data-name="Rectángulo 2739" width="32.17" height="5.971" fill="#2c3540"/>
                  <rect id="Rectángulo_2740" data-name="Rectángulo 2740" width="32.17" height="5.966" transform="translate(0 10.514)" fill="#2c3540"/>
                  <rect id="Rectángulo_2741" data-name="Rectángulo 2741" width="32.17" height="5.971" transform="translate(0 21.017)" fill="#2c3540"/>
                  <rect id="Rectángulo_2742" data-name="Rectángulo 2742" width="32.17" height="5.971" transform="translate(0 63.047)" fill="#2c3540"/>
                </g>
                <rect id="Rectángulo_2743" data-name="Rectángulo 2743" width="76.374" height="58.515" transform="translate(52.701 26.748)" fill="#bcc9d6"/>
                <rect id="Rectángulo_2744" data-name="Rectángulo 2744" width="76.374" height="11.657" transform="translate(52.701 9.131)" fill="#bcc9d6"/>
                <g id="Grupo_10610" data-name="Grupo 10610" transform="translate(58.033 36.245)">
                  <path id="Trazado_10484" data-name="Trazado 10484" d="M32.828,243.991c4.813-1.7,11.535-1.646,17.931-1.532,6.011.109,10.336,3.608,10.336,10.113v2.134c0,3.987-1.262,6.769-4.595,7.979,3.447,1.09,4.595,4.262,4.595,8.415v1.589c0,6.614-4.05,10.273-10.715,10.273-6.235,0-12.413.166-17.22-1.532l.052-8.03h11.92c4.262,0,5.352-.057,5.352-2.627v-.488c0-2.518-1.526-2.633-5.025-2.793l-8.908-.379v-8.639l8.908-.545c3.774-.166,5.14-.166,5.14-2.684v-.488c0-2.788-2.3-2.788-5.14-2.788H32.828Z" transform="translate(-32.828 -242.41)" fill="#ff4140"/>
                  <path id="Trazado_10485" data-name="Trazado 10485" d="M38.574,242.438H57.331c10.876,0,13.612,8.851,13.612,20.168,0,14-4.486,19.841-13.612,19.841H38.574Zm17.662,31.049c3.115,0,4.1-3.229,4.1-10.933,0-9.895-1.532-11.151-4.1-11.151h-7.05v22.084Z" transform="translate(-5.614 -242.28)" fill="#ff4140"/>
                </g>
              </g>
            </g>
          </g>
          <path id="Trazado_10486" data-name="Trazado 10486" d="M23.6,317.366V240.06a3.136,3.136,0,0,1,3.12-3.126H151.215Z" transform="translate(-18.481 -232.103)" fill="#fff" opacity="0.3" style="mix-blend-mode: screen;isolation: isolate"/>
        </g>
      </g>
      <g id="Grupo_10651" data-name="Grupo 10651" transform="translate(158.656 0)">
        <g id="Grupo_10620" data-name="Grupo 10620" transform="translate(35.599 19.836)">
          <rect id="Rectángulo_2745" data-name="Rectángulo 2745" width="5.35" height="150.259" transform="translate(11.366)" fill="#141a21"/>
          <rect id="Rectángulo_2746" data-name="Rectángulo 2746" width="5.355" height="150.259" transform="translate(24.597)" fill="#141a21"/>
          <g id="Grupo_10616" data-name="Grupo 10616">
            <rect id="Rectángulo_2747" data-name="Rectángulo 2747" width="57.692" height="5.355" transform="translate(191.667 16.519)" fill="#141a21"/>
            <rect id="Rectángulo_2748" data-name="Rectángulo 2748" width="5.355" height="150.259" transform="translate(211.407)" fill="#141a21"/>
            <rect id="Rectángulo_2749" data-name="Rectángulo 2749" width="5.355" height="150.259" transform="translate(227.316)" fill="#141a21"/>
            <rect id="Rectángulo_2750" data-name="Rectángulo 2750" width="186.177" height="5.355" transform="translate(0 16.519)" fill="#141a21"/>
            <rect id="Rectángulo_2751" data-name="Rectángulo 2751" width="57.692" height="5.355" transform="translate(191.667 28.333)" fill="#141a21"/>
            <rect id="Rectángulo_2752" data-name="Rectángulo 2752" width="186.177" height="5.355" transform="translate(0 28.333)" fill="#141a21"/>
          </g>
          <g id="Grupo_10617" data-name="Grupo 10617" transform="translate(208.78 10.027)">
            <rect id="Rectángulo_2753" data-name="Rectángulo 2753" width="18.536" height="27.902" fill="#dae1e8"/>
            <rect id="Rectángulo_2754" data-name="Rectángulo 2754" width="21.684" height="27.902" transform="translate(4.638)" fill="#bcc9d6"/>
          </g>
          <g id="Grupo_10618" data-name="Grupo 10618" transform="translate(157.065 132.816)">
            <rect id="Rectángulo_2755" data-name="Rectángulo 2755" width="18.536" height="17.444" fill="#dae1e8"/>
            <rect id="Rectángulo_2756" data-name="Rectángulo 2756" width="21.684" height="17.444" transform="translate(4.638)" fill="#bcc9d6"/>
          </g>
          <g id="Grupo_10619" data-name="Grupo 10619" transform="translate(8.733 10.027)">
            <rect id="Rectángulo_2757" data-name="Rectángulo 2757" width="18.542" height="27.902" fill="#dae1e8"/>
            <rect id="Rectángulo_2758" data-name="Rectángulo 2758" width="21.684" height="27.902" transform="translate(4.644)" fill="#bcc9d6"/>
          </g>
        </g>
        <rect id="Rectángulo_2759" data-name="Rectángulo 2759" width="7.371" height="158.651" transform="translate(80.121)" fill="#93a5b8"/>
        <rect id="Rectángulo_2760" data-name="Rectángulo 2760" width="7.366" height="158.651" transform="translate(281.21)" fill="#93a5b8"/>
        <rect id="Rectángulo_2761" data-name="Rectángulo 2761" width="7.372" height="158.651" transform="translate(87.47)" fill="#bcc9d6"/>
        <g id="Grupo_10621" data-name="Grupo 10621" transform="translate(67.82 127.275)">
          <rect id="Rectángulo_2762" data-name="Rectángulo 2762" width="150.282" height="46.516" transform="translate(15.427)" fill="#2c3540"/>
          <rect id="Rectángulo_2763" data-name="Rectángulo 2763" width="181.142" height="25.885" transform="translate(0 0.011)" fill="#e6e7e8"/>
        </g>
        <rect id="Rectángulo_2764" data-name="Rectángulo 2764" width="7.378" height="158.651" transform="translate(28.221)" fill="#bcc9d6"/>
        <rect id="Rectángulo_2765" data-name="Rectángulo 2765" width="7.372" height="158.651" transform="translate(288.554)" fill="#bcc9d6"/>
        <rect id="Rectángulo_2766" data-name="Rectángulo 2766" width="7.377" height="158.651" transform="translate(20.844)" fill="#fafbfd"/>
        <g id="Grupo_10622" data-name="Grupo 10622" transform="translate(20.844)">
          <rect id="Rectángulo_2767" data-name="Rectángulo 2767" width="208.456" height="19.538" transform="translate(66.626)" fill="#bcc9d6"/>
          <rect id="Rectángulo_2768" data-name="Rectángulo 2768" width="208.461" height="19.538" fill="#fafbfd"/>
          <rect id="Rectángulo_2769" data-name="Rectángulo 2769" width="7.372" height="158.651" transform="translate(201.089)" fill="#fafbfd"/>
        </g>
        <rect id="Rectángulo_2770" data-name="Rectángulo 2770" width="7.377" height="139.112" transform="translate(229.305 19.538)" fill="#bcc9d6"/>
        <g id="Grupo_10639" data-name="Grupo 10639" transform="translate(0 158.651)">
          <g id="Grupo_10623" data-name="Grupo 10623" transform="translate(75.152 33.218)">
            <path id="Rectángulo_2771" data-name="Rectángulo 2771" d="M1.083,0H27.244a1.084,1.084,0,0,1,1.084,1.084v53a1.083,1.083,0,0,1-1.083,1.083H1.085A1.085,1.085,0,0,1,0,54.086v-53A1.083,1.083,0,0,1,1.083,0Z" fill="#172533"/>
            <path id="Rectángulo_2772" data-name="Rectángulo 2772" d="M1.083,0h26.16a1.085,1.085,0,0,1,1.085,1.085v53a1.083,1.083,0,0,1-1.083,1.083H1.085A1.085,1.085,0,0,1,0,54.086v-53A1.083,1.083,0,0,1,1.083,0Z" transform="translate(204.769)" fill="#172533"/>
          </g>
          <g id="Grupo_10624" data-name="Grupo 10624" transform="translate(6.683 33.218)">
            <path id="Rectángulo_2773" data-name="Rectángulo 2773" d="M1.083,0h26.16a1.084,1.084,0,0,1,1.084,1.084v53a1.083,1.083,0,0,1-1.083,1.083H1.084A1.084,1.084,0,0,1,0,54.087v-53A1.083,1.083,0,0,1,1.083,0Z" fill="#2c3540"/>
            <path id="Rectángulo_2774" data-name="Rectángulo 2774" d="M1.083,0H27.238a1.084,1.084,0,0,1,1.084,1.084v53a1.083,1.083,0,0,1-1.083,1.083H1.084A1.084,1.084,0,0,1,0,54.087v-53A1.083,1.083,0,0,1,1.083,0Z" transform="translate(204.775)" fill="#2c3540"/>
          </g>
          <g id="Grupo_10625" data-name="Grupo 10625">
            <rect id="Rectángulo_2775" data-name="Rectángulo 2775" width="250.148" height="78.737" transform="translate(66.627)" fill="#bcc9d6"/>
            <rect id="Rectángulo_2776" data-name="Rectángulo 2776" width="250.154" height="78.737" fill="#e6e7e8"/>
          </g>
          <g id="Grupo_10638" data-name="Grupo 10638" transform="translate(100.967 11.582)">
            <g id="Grupo_10628" data-name="Grupo 10628" transform="translate(108.539)">
              <g id="Grupo_10626" data-name="Grupo 10626" transform="translate(0.379 29.862)">
                <path id="Trazado_10487" data-name="Trazado 10487" d="M111.317,267.678A11.923,11.923,0,1,0,99.392,279.6,11.943,11.943,0,0,0,111.317,267.678Z" transform="translate(-84.535 -255.73)" fill="#bcc9d6"/>
                <path id="Trazado_10488" data-name="Trazado 10488" d="M110.805,267.678a11.923,11.923,0,1,0-11.92,11.92A11.942,11.942,0,0,0,110.805,267.678Z" transform="translate(-86.96 -255.73)" fill="#fafbfd"/>
              </g>
              <g id="Grupo_10627" data-name="Grupo 10627">
                <path id="Trazado_10489" data-name="Trazado 10489" d="M105.2,262.449a11.931,11.931,0,0,0-11.925-11.926H89.4l.2,23.857h3.683A11.928,11.928,0,0,0,105.2,262.449Z" transform="translate(-77.659 -250.524)" fill="#172533"/>
                <path id="Trazado_10490" data-name="Trazado 10490" d="M110.751,262.449a11.928,11.928,0,1,0-11.925,11.931A11.934,11.934,0,0,0,110.751,262.449Z" transform="translate(-86.894 -250.524)" fill="#2c3540"/>
              </g>
            </g>
            <g id="Grupo_10631" data-name="Grupo 10631" transform="translate(0 0.336)">
              <g id="Grupo_10629" data-name="Grupo 10629" transform="translate(0 29.527)">
                <path id="Trazado_10491" data-name="Trazado 10491" d="M92.334,267.678A11.925,11.925,0,1,0,80.4,279.6,11.948,11.948,0,0,0,92.334,267.678Z" transform="translate(-65.552 -255.73)" fill="#bcc9d6"/>
                <path id="Trazado_10492" data-name="Trazado 10492" d="M91.817,267.678A11.923,11.923,0,1,0,79.892,279.6,11.943,11.943,0,0,0,91.817,267.678Z" transform="translate(-67.972 -255.73)" fill="#fafbfd"/>
              </g>
              <g id="Grupo_10630" data-name="Grupo 10630" transform="translate(0.407)">
                <circle id="Elipse_628" data-name="Elipse 628" cx="11.587" cy="11.587" r="11.587" transform="translate(2.787)" fill="#db9e02"/>
                <path id="Trazado_10493" data-name="Trazado 10493" d="M91.217,262.17A11.587,11.587,0,1,0,79.63,273.751,11.581,11.581,0,0,0,91.217,262.17Z" transform="translate(-68.043 -250.58)" fill="#ffca00"/>
              </g>
            </g>
            <g id="Grupo_10634" data-name="Grupo 10634" transform="translate(36.31 0.333)">
              <g id="Grupo_10632" data-name="Grupo 10632" transform="translate(0 29.53)">
                <path id="Trazado_10494" data-name="Trazado 10494" d="M98.658,267.678a11.923,11.923,0,1,0-11.92,11.92A11.942,11.942,0,0,0,98.658,267.678Z" transform="translate(-71.882 -255.73)" fill="#bcc9d6"/>
                <path id="Trazado_10495" data-name="Trazado 10495" d="M98.147,267.678A11.923,11.923,0,1,0,86.222,279.6,11.939,11.939,0,0,0,98.147,267.678Z" transform="translate(-74.302 -255.73)" fill="#fafbfd"/>
              </g>
              <g id="Grupo_10633" data-name="Grupo 10633" transform="translate(0.402)">
                <path id="Trazado_10496" data-name="Trazado 10496" d="M98.032,262.169a11.587,11.587,0,1,0-11.587,11.593A11.584,11.584,0,0,0,98.032,262.169Z" transform="translate(-72.07 -250.582)" fill="#338233"/>
                <path id="Trazado_10497" data-name="Trazado 10497" d="M97.552,262.169a11.59,11.59,0,1,0-11.593,11.593A11.585,11.585,0,0,0,97.552,262.169Z" transform="translate(-74.372 -250.582)" fill="#52b352"/>
              </g>
            </g>
            <g id="Grupo_10637" data-name="Grupo 10637" transform="translate(72.608 0.333)">
              <g id="Grupo_10635" data-name="Grupo 10635" transform="translate(0 29.53)">
                <path id="Trazado_10498" data-name="Trazado 10498" d="M104.988,267.678A11.923,11.923,0,1,0,93.063,279.6,11.947,11.947,0,0,0,104.988,267.678Z" transform="translate(-78.2 -255.73)" fill="#bcc9d6"/>
                <path id="Trazado_10499" data-name="Trazado 10499" d="M104.481,267.678a11.925,11.925,0,1,0-11.92,11.92A11.938,11.938,0,0,0,104.481,267.678Z" transform="translate(-80.63 -255.73)" fill="#fafbfd"/>
              </g>
              <g id="Grupo_10636" data-name="Grupo 10636" transform="translate(0.413)">
                <path id="Trazado_10500" data-name="Trazado 10500" d="M104.368,262.175a11.59,11.59,0,1,0-11.593,11.593A11.59,11.59,0,0,0,104.368,262.175Z" transform="translate(-78.4 -250.582)" fill="#cc2221"/>
                <path id="Trazado_10501" data-name="Trazado 10501" d="M103.876,262.175a11.587,11.587,0,1,0-11.587,11.593A11.585,11.585,0,0,0,103.876,262.175Z" transform="translate(-80.702 -250.582)" fill="#ff4140"/>
              </g>
            </g>
          </g>
        </g>
        <g id="Grupo_10643" data-name="Grupo 10643" transform="translate(122.727 29.044)">
          <g id="Grupo_10642" data-name="Grupo 10642">
            <rect id="Rectángulo_2777" data-name="Rectángulo 2777" width="46.444" height="7.423" fill="#141a21"/>
            <g id="Grupo_10641" data-name="Grupo 10641" transform="translate(21.617 2.963)">
              <rect id="Rectángulo_2778" data-name="Rectángulo 2778" width="21.331" height="26.474" rx="0.343" transform="translate(3.496)" fill="#141a21"/>
              <g id="Grupo_10640" data-name="Grupo 10640" transform="translate(0 4.459)">
                <rect id="Rectángulo_2779" data-name="Rectángulo 2779" width="13.052" height="7.775" transform="translate(0 23.057)" fill="#141a21"/>
                <rect id="Rectángulo_2780" data-name="Rectángulo 2780" width="6.123" height="7.775" transform="translate(19.605 23.057)" fill="#141a21"/>
                <path id="Trazado_10502" data-name="Trazado 10502" d="M99.126,249.219V238.774a11.57,11.57,0,1,0-23.14,0v10.446Z" transform="translate(-73.394 -227.204)" fill="#1a222b"/>
                <rect id="Rectángulo_2781" data-name="Rectángulo 2781" width="28.322" height="4.733" transform="translate(0 20.598)" fill="#1a222b"/>
                <path id="Trazado_10503" data-name="Trazado 10503" d="M91.02,235.01a7.13,7.13,0,1,0-7.13,7.13A7.126,7.126,0,0,0,91.02,235.01Z" transform="translate(-69.729 -224.002)" fill="#141a21"/>
                <circle id="Elipse_629" data-name="Elipse 629" cx="4.616" cy="4.616" r="4.616" transform="translate(9.545 6.392)" fill="#1a222b"/>
              </g>
            </g>
            <rect id="Rectángulo_2782" data-name="Rectángulo 2782" width="12.559" height="32.753" fill="#141a21"/>
          </g>
        </g>
        <g id="Grupo_10646" data-name="Grupo 10646" transform="translate(99.165 70.284)">
          <g id="Grupo_10644" data-name="Grupo 10644" transform="translate(6.665)">
            <path id="Trazado_10504" data-name="Trazado 10504" d="M68.82,235.339c6.837-2.409,16.394-2.329,25.486-2.174,8.541.161,14.673,5.128,14.673,14.369v3.034c0,5.667-1.778,9.625-6.516,11.34,4.887,1.554,6.516,6.057,6.516,11.965v2.249c0,9.4-5.748,14.61-15.224,14.61-8.851,0-17.627.235-24.47-2.18l.08-11.421H86.3c6.063,0,7.612-.075,7.612-3.728v-.694c0-3.579-2.174-3.729-7.147-3.964L74.1,268.2v-12.27l12.66-.78c5.363-.229,7.308-.229,7.308-3.8v-.7c0-3.958-3.264-3.958-7.308-3.958H68.82Z" transform="translate(-68.82 -233.099)" fill="#c72e2e"/>
            <path id="Trazado_10505" data-name="Trazado 10505" d="M76.986,233.139H103.63c15.459,0,19.342,12.579,19.342,28.663,0,19.887-6.367,28.193-19.342,28.193H76.986Zm25.09,44.116c4.434,0,5.828-4.583,5.828-15.533,0-14.059-2.174-15.849-5.828-15.849H92.061v31.382Z" transform="translate(-30.145 -232.913)" fill="#c72e2e"/>
          </g>
          <g id="Grupo_10645" data-name="Grupo 10645">
            <path id="Trazado_10506" data-name="Trazado 10506" d="M67.658,235.339c6.837-2.409,16.394-2.329,25.486-2.174,8.541.161,14.679,5.128,14.679,14.369v3.034c0,5.667-1.784,9.625-6.522,11.34,4.893,1.554,6.522,6.057,6.522,11.965v2.249c0,9.4-5.748,14.61-15.224,14.61-8.857,0-17.633.235-24.47-2.18l.08-11.421H85.136c6.063,0,7.612-.075,7.612-3.728v-.694c0-3.579-2.174-3.729-7.141-3.964L72.941,268.2v-12.27l12.665-.78c5.363-.229,7.3-.229,7.3-3.8v-.7c0-3.958-3.264-3.958-7.3-3.958H67.658Z" transform="translate(-67.658 -233.099)" fill="#ff4140"/>
            <path id="Trazado_10507" data-name="Trazado 10507" d="M75.825,233.139h26.644c15.459,0,19.342,12.579,19.342,28.663,0,19.887-6.373,28.193-19.342,28.193H75.825Zm25.09,44.116c4.428,0,5.828-4.583,5.828-15.533,0-14.059-2.18-15.849-5.828-15.849H90.894v31.382Z" transform="translate(-28.978 -232.913)" fill="#ff4140"/>
          </g>
        </g>
        <path id="Trazado_10508" data-name="Trazado 10508" d="M137.888,312.686H51.493V249.925h86.395Z" transform="translate(-45.051 -83.129)" fill="#3598db"/>
        <rect id="Rectángulo_2783" data-name="Rectángulo 2783" width="77.628" height="7.506" transform="translate(9.854 171.098)" fill="#fff"/>
        <g id="Grupo_10647" data-name="Grupo 10647" transform="translate(9.854 207.021)">
          <rect id="Rectángulo_2784" data-name="Rectángulo 2784" width="44.303" height="7.511" fill="#fff"/>
          <rect id="Rectángulo_2785" data-name="Rectángulo 2785" width="25.448" height="7.511" transform="translate(52.18)" fill="#fff"/>
        </g>
        <g id="Grupo_10648" data-name="Grupo 10648" transform="translate(9.854 218.555)">
          <rect id="Rectángulo_2786" data-name="Rectángulo 2786" width="44.303" height="7.501" fill="#fff"/>
          <rect id="Rectángulo_2787" data-name="Rectángulo 2787" width="25.448" height="7.501" transform="translate(52.18)" fill="#fff"/>
        </g>
        <g id="Grupo_10649" data-name="Grupo 10649" transform="translate(9.854 183.97)">
          <rect id="Rectángulo_2788" data-name="Rectángulo 2788" width="44.303" height="7.506" fill="#fff"/>
          <rect id="Rectángulo_2789" data-name="Rectángulo 2789" width="25.448" height="7.506" transform="translate(52.18)" fill="#fff"/>
        </g>
        <g id="Grupo_10650" data-name="Grupo 10650" transform="translate(9.854 195.493)">
          <rect id="Rectángulo_2790" data-name="Rectángulo 2790" width="44.303" height="7.506" fill="#fff"/>
          <rect id="Rectángulo_2791" data-name="Rectángulo 2791" width="25.448" height="7.506" transform="translate(52.18)" fill="#fff"/>
        </g>
      </g>
    </g>
  </g>
</svg>
